<svg width="700" height="500" viewBox="0 0 700 500" fill="none" xmlns="http://www.w3.org/2000/svg">
<path d="M314.89 117.92C305.63 108.69 297.08 99.0202 283.59 94.8502C255.59 86.1902 222.36 91.4602 199.78 111.19C168.5 138.52 161.15 184.38 166.19 221.65C171.91 263.88 189.5 304.65 218.84 336.22C250.92 370.76 295.91 393.22 343.48 404.4C369.17 410.4 396.14 413.4 422.64 409.4C449.14 405.4 475.21 394.14 493.49 375.14C518.89 348.77 526.42 310.94 523.84 276.04C522.03 251.58 515.27 226.59 498.15 208.67C466.23 175.27 413.64 172.77 372.09 154.67C355.09 147.26 338.86 138.15 324.59 126.76C321.198 123.992 317.96 121.041 314.89 117.92Z" fill="#79D7FF"/>
<path opacity="0.7" d="M314.89 117.92C305.63 108.69 297.08 99.0202 283.59 94.8502C255.59 86.1902 222.36 91.4602 199.78 111.19C168.5 138.52 161.15 184.38 166.19 221.65C171.91 263.88 189.5 304.65 218.84 336.22C250.92 370.76 295.91 393.22 343.48 404.4C369.17 410.4 396.14 413.4 422.64 409.4C449.14 405.4 475.21 394.14 493.49 375.14C518.89 348.77 526.42 310.94 523.84 276.04C522.03 251.58 515.27 226.59 498.15 208.67C466.23 175.27 413.64 172.77 372.09 154.67C355.09 147.26 338.86 138.15 324.59 126.76C321.198 123.992 317.96 121.041 314.89 117.92Z" fill="white"/>
<path d="M490.51 172.3L493.23 166.46C493.23 166.46 493.23 166.29 493.23 166C493.23 166 492.9 156.19 492.47 153.15C492.15 150.87 491.17 150.55 490.69 150.54C490.017 149.975 489.262 149.516 488.45 149.18C486.238 147.834 483.939 146.635 481.57 145.59C479.22 144.37 477.22 143.67 476.38 145C476.023 145.561 475.712 146.149 475.45 146.76C475.38 146.93 475.32 147.09 475.26 147.26V147.36C475.095 147.849 474.968 148.351 474.88 148.86L471.48 151.33L470.48 151.85L472.48 162.3L478.38 169.18C478.38 169.18 478.38 169.46 478.26 169.9C477.52 173.174 475.988 176.216 473.8 178.76C472.968 179.546 472.183 180.381 471.45 181.26C471.19 181.51 470.94 181.76 470.66 182C466.39 185.73 464.75 188.59 464.04 190.75V190.89C461.07 188.068 457.917 185.445 454.6 183.04C453.88 182.48 447.22 176.66 442.48 172.15L438.85 166.21C440.02 168.36 437.92 164.4 437.73 163.99C435.61 159.27 434.73 154.06 432.27 149.48C428.61 142.48 420.08 137.17 411.74 136.08L415.74 127.08L411.82 125.51C411.935 125.602 412.063 125.676 412.2 125.73C413.08 126.05 414.79 126.67 416.86 127.33C430.66 132.61 434.52 129.33 434.86 129.07C435.376 128.767 435.796 128.325 436.072 127.795C436.348 127.264 436.468 126.666 436.42 126.07L435.22 108.66C435.205 108.445 435.234 108.229 435.306 108.026C435.379 107.823 435.492 107.637 435.64 107.48L438.64 104.17C438.885 103.9 439.03 103.555 439.052 103.191C439.074 102.827 438.971 102.467 438.76 102.17L434.67 96.42C434.442 96.1052 434.338 95.7168 434.38 95.3301L434.84 91.0101C434.879 90.6996 434.82 90.3848 434.67 90.1101L429.06 79.28C430.163 78.7195 431.114 77.8993 431.83 76.89C434.9 71.89 434.83 68.8 432.68 67.63C430.53 66.46 426.42 73.6301 416.08 71.3701C410.9 70.3101 400 80.51 396 88.57L400.25 78.78C395.96 84.44 393.57 86.17 394.46 88.78C394.37 88.84 394.21 88.94 394.01 89.09C390.32 92.02 390.01 94.96 390.01 94.96C389.01 98.46 390.39 103.7 396.3 110.54L385.83 124.54C385.034 124.018 384.132 123.676 383.19 123.54C378.9 122.84 372.64 125.06 370.74 125.79C369.66 125.51 368.62 125.26 367.63 125.05C364.736 124.041 361.695 123.514 358.63 123.49C355.444 123.161 352.226 123.327 349.09 123.98C347.283 124.477 345.52 125.122 343.82 125.91C342.265 126.513 340.772 127.263 339.36 128.15C337.881 128.957 336.463 129.873 335.12 130.89C331.013 133.782 327.314 137.213 324.12 141.09L320.84 145C319.64 146.26 318.45 147.527 317.27 148.8C311.939 154.256 306.235 159.335 300.2 164C294.392 167.546 288.164 170.351 281.66 172.35C277.16 173.79 272.45 175.03 267.75 176.15C262.75 177.23 257.65 178.15 252.56 179.15C249.96 179.59 247.31 180.15 244.74 180.77C241.95 181.38 239.17 182.04 236.41 182.77C233.123 183.481 229.901 184.468 226.78 185.72C225.88 186.04 224.98 186.38 224.09 186.72C224.71 186.85 225.32 187 225.92 187.18C229.425 188.633 232.637 190.71 235.4 193.31C238.52 197.083 240.433 201.706 240.89 206.58C240.81 210.88 239.38 215.79 238.28 220.58C236.74 225.71 235.49 230.17 237.5 234.09C237.961 235.293 238.639 236.402 239.5 237.36C240.674 238.78 242.04 240.028 243.56 241.07C246.35 243.25 249.56 245.39 252.04 247.93C253.866 250.791 255.445 253.802 256.76 256.93C257.419 259.082 258.269 261.17 259.3 263.17C259.74 264.17 260.2 265.17 260.72 266.12C260.988 266.672 261.303 267.201 261.66 267.7C264.745 272.476 269.022 276.364 274.07 278.98C278.609 281.846 283.793 283.531 289.15 283.88C288.798 285.682 288.541 287.501 288.38 289.33C284.805 290.329 281.33 291.658 278 293.3C271.65 295.95 263.84 299.76 258.87 304.18C254.949 307.701 251.617 311.826 249 316.4C245.938 321.621 243.523 327.195 241.81 333C241.05 335.29 240.36 337.56 239.69 339.76L239.63 339.62C239.63 339.88 239.54 340.14 239.5 340.4C238.68 343.13 237.89 345.76 237.07 348.2C233.81 355.73 228.41 363.2 225.77 367.14C224.39 368.91 222.95 370.64 221.47 372.35C218.27 375.88 214.22 380.02 211.11 383.67C210.111 384.746 209.195 385.896 208.37 387.11C207.703 387.995 207.13 388.947 206.66 389.95C204.29 395.47 209.52 399.31 213.21 404.02C213.21 404.02 213.27 404.12 213.31 404.17C214.496 406.629 215.247 409.275 215.53 411.99C215.431 414.446 215.656 416.903 216.2 419.3C216.827 421.196 217.905 422.912 219.34 424.3C221.139 426.347 223.302 428.043 225.72 429.3C226.914 430.025 228.161 430.66 229.45 431.2C233.19 432.69 245.54 432.6 248.3 427.81C248.469 427.515 248.623 427.211 248.76 426.9C249.106 426.316 249.308 425.658 249.35 424.98C249.477 424.058 249.373 423.119 249.048 422.246C248.724 421.374 248.189 420.595 247.49 419.98C247.41 420.08 247.83 420.34 247.75 420.45C243.37 413.91 231.62 406.33 231.75 399.68C231.94 387.03 239.6 378.29 248.34 370.1C256.84 362.1 267.23 360.76 275.13 352.34C280.23 346.91 285.81 341.34 289.27 330C309.86 323.72 314.98 306.78 314.98 306.78C317.1 305.92 318.84 305.09 320.8 304.22C326.44 312.75 330.48 318.37 331.07 318L376.43 287.49C377.43 288.68 386.43 299.29 395.1 302.12L395.35 302.21L404.46 306.78C402.9 312.32 395.22 313.91 395.22 313.91V314L394.53 314.14C392.91 314.08 383.86 314.14 376.04 322.61C372.33 326.21 367.44 332.74 363.8 337.83C360.8 342.01 358.74 345.04 358.74 345.04C357.38 345.363 356.044 345.778 354.74 346.28C346.31 349.33 345.58 352.94 346.06 355.02C346.069 355.356 346.105 355.69 346.17 356.02C346.489 357.165 347.123 358.197 348 359C348.872 360.023 349.858 360.942 350.94 361.74C352.5 363.12 353.833 364.736 354.89 366.53C355.909 369.241 356.708 372.03 357.28 374.87C358.57 380.38 365.05 392.63 374.06 393.16C376.222 393.357 378.401 393.195 380.51 392.68C381.99 392.4 383.44 391.9 383.59 390.68C383.639 390.58 383.679 390.477 383.71 390.37C383.71 390.37 383.65 390.28 383.56 390.11C383.505 389.812 383.411 389.523 383.28 389.25C382.063 386.951 380.693 384.736 379.18 382.62C376.709 377.868 374.979 372.765 374.05 367.49C374 367.15 373.96 366.82 373.92 366.49C373.74 364.96 373.5 363.26 373.39 361.55C373.39 361.37 373.39 361.19 373.39 361.02C373.255 358.432 373.757 355.85 374.85 353.5C376.56 350.74 379.7 349.25 382.79 348.5C384.96 347.98 387.66 347.25 390.66 346.36C394.365 345.453 397.995 344.267 401.52 342.81C413.6 338.47 426.13 332.58 428.37 326.81C431.92 317.68 438.9 307.81 438.9 307.81C435.41 285 418 259.56 418 259.56L464.9 227.82C465.32 227.56 463.64 224.26 460.63 219.06L461.45 220.36C464.53 222.12 470.14 222.91 473.45 223.24L474.18 223.31C474.698 223.37 475.219 223.39 475.74 223.37C479.32 220.21 482.51 214.23 484.65 208.37C487.569 201.448 489.465 194.138 490.28 186.67C490.805 183.146 490.936 179.574 490.67 176.02C490.68 174.8 490.62 173.56 490.51 172.3ZM395.13 112.6C395.51 111.98 395.87 111.41 396.19 110.88L396.3 110.62C397.37 108.86 398 107.71 398 107.71L397.6 107.62L397.73 107.32L398 107.71C397.23 109.443 396.267 111.083 395.13 112.6Z" fill="white"/>
<path d="M469.23 184C469.23 184 472.93 196.27 488.64 192.84C488.64 192.84 491.87 184.84 490.16 172.66L493.03 166.48C493.03 166.48 492.18 156.81 492.32 155.37C492.46 153.93 492.49 150.93 487.97 149.08C483.45 147.23 477.74 142.49 476.15 145.02C474.56 147.55 474.76 148.77 474.76 148.77L470.76 151.71L472.26 162.31L478.17 169.2C478.17 169.2 477.39 175.46 474.24 178.2C472.298 179.88 470.61 181.834 469.23 184Z" fill="#79D7FF"/>
<path opacity="0.2" d="M485 193.56C485 193.56 488.76 177.25 486.3 167.66C486.3 167.66 491.81 162.56 490.23 150.55C490.23 150.55 491.84 150.1 492.23 153.14C492.62 156.18 493 166 493 166L490.32 172.18C490.32 172.18 490.12 186.28 489.24 191.86C489.23 191.86 489 193.09 485 193.56Z" fill="black"/>
<path d="M410.82 138.91L461.44 212.91C461.44 212.91 464.44 215.98 471.73 217.36C471.73 217.36 482.51 205.36 484.97 193.57L488.97 192.77C488.97 192.77 484.33 216.05 475.97 223.49C475.97 223.49 465.88 222.98 461.38 220.39L410.45 139.8L410.82 138.91Z" fill="#79D7FF"/>
<path opacity="0.6" d="M410.82 138.91L461.44 212.91C461.44 212.91 464.44 215.98 471.73 217.36C471.73 217.36 482.51 205.36 484.97 193.57L488.97 192.77C488.97 192.77 484.33 216.05 475.97 223.49C475.97 223.49 465.88 222.98 461.38 220.39L410.45 139.8L410.82 138.91Z" fill="white"/>
<path d="M411.73 136.33C415.946 136.621 420.018 137.98 423.564 140.279C427.11 142.577 430.013 145.74 432 149.47C434.4 154.05 435.33 159.26 437.46 163.98C440.98 171.79 447.56 177.78 454.33 183.04C458.59 186.34 463.06 189.51 466.33 193.8C467.992 195.964 469.212 198.435 469.92 201.07" stroke="#263238" stroke-linecap="round" stroke-linejoin="round"/>
<path d="M463.78 190.74C464.5 188.58 466.13 185.74 470.4 182C477.56 175.75 478.13 169.18 478.13 169.18L472.22 162.29L470.22 151.85L474.54 149.63C474.54 149.63 474.79 145.85 476.94 144.69C479.09 143.53 489.24 149.57 491.47 151.29C492.91 152.41 492.05 157.87 493.01 166C491.46 169.51 490.33 172.18 490.33 172.18C492.92 203.04 475.91 223.48 475.91 223.48C470.912 223.209 465.987 222.163 461.31 220.38" stroke="#263238" stroke-linecap="round" stroke-linejoin="round"/>
<path d="M475.64 153.2L478.76 156C479.205 156.427 479.69 156.809 480.21 157.14C480.985 157.74 481.907 158.12 482.88 158.24C483.69 158.279 484.5 158.153 485.26 157.87C485.95 157.57 487.47 154.87 487.67 154.19" stroke="#263238" stroke-linecap="round" stroke-linejoin="round"/>
<path d="M469.08 183.29C469.08 183.29 472.29 197.02 489.27 192.53" stroke="#263238" stroke-linecap="round" stroke-linejoin="round"/>
<path d="M481.84 145.93C480.985 146.259 480.212 146.772 479.576 147.432C478.941 148.092 478.457 148.883 478.16 149.75C477.753 150.616 477.533 151.557 477.512 152.512C477.491 153.468 477.671 154.418 478.04 155.3" stroke="#263238" stroke-linecap="round" stroke-linejoin="round"/>
<path d="M486.58 148.24C485.512 148.564 484.528 149.118 483.698 149.865C482.869 150.612 482.214 151.532 481.78 152.56C481.06 154.179 480.909 155.994 481.35 157.71" stroke="#263238" stroke-linecap="round" stroke-linejoin="round"/>
<path d="M480.68 157.46C481.786 158.062 482.797 158.823 483.68 159.72C485.52 161.77 485.87 164.72 486.14 167.44" stroke="#263238" stroke-linecap="round" stroke-linejoin="round"/>
<path d="M474.52 149.63C474.52 149.63 477.77 147.63 478.32 148.71" stroke="#263238" stroke-linecap="round" stroke-linejoin="round"/>
<path d="M261.81 361.31C261.81 361.31 242.68 356.36 239.89 339.83C237.263 347.869 233.535 355.505 228.81 362.52C221.34 373.27 206.53 385.6 206.47 389.91C206.41 394.22 207.3 396.86 211.18 400.48C215.06 404.1 215.48 413.66 215.63 415.91C215.925 418.257 216.713 420.516 217.942 422.537C219.17 424.559 220.812 426.298 222.76 427.64C228.32 431.64 237.29 433.29 243.89 430.58C250.49 427.87 250 422.81 247.79 420.34C245.58 417.87 232.28 405.67 231.79 401.54C231.3 397.41 232.73 389 237.14 382.32C241.55 375.64 252.4 365.41 261.81 361.31Z" fill="#79D7FF"/>
<path d="M415.69 127.27C415.69 127.27 411.6 133.96 410.37 139.79" stroke="#263238" stroke-linecap="round" stroke-linejoin="round"/>
<path d="M419.56 82.2202C421 86.3302 422.15 90.8602 420.73 94.9702C419.86 97.5002 418.09 99.6302 417.19 102.14C416.19 104.87 416.32 107.87 416.44 110.77C416.61 114.69 416.88 118.89 419.3 121.97C422.83 126.47 429.38 126.82 434.66 129.04C434.66 129.04 431.11 132.89 416.55 127.3L411.55 125.49L408.9 137.61C408.9 137.61 407.34 134.99 404.9 135.39C402.46 135.79 395.98 140.62 395.98 140.62C395.98 140.62 392.26 136.94 391.43 134.46C390.6 131.98 388.33 126.04 385.69 124.67C385.69 124.67 396.69 111.35 397.91 107.74C397.91 107.74 391.67 99.5202 398.83 96.2902C405.99 93.0602 409.92 101.29 409.92 101.29L407.4 90.6202L417 82.5002L419.56 82.2202Z" fill="#79D7FF"/>
<path opacity="0.6" d="M419.56 82.2202C421 86.3302 422.15 90.8602 420.73 94.9702C419.86 97.5002 418.09 99.6302 417.19 102.14C416.19 104.87 416.32 107.87 416.44 110.77C416.61 114.69 416.88 118.89 419.3 121.97C422.83 126.47 429.38 126.82 434.66 129.04C434.66 129.04 431.11 132.89 416.55 127.3L411.55 125.49L408.9 137.61C408.9 137.61 407.34 134.99 404.9 135.39C402.46 135.79 395.98 140.62 395.98 140.62C395.98 140.62 392.26 136.94 391.43 134.46C390.6 131.98 388.33 126.04 385.69 124.67C385.69 124.67 396.69 111.35 397.91 107.74C397.91 107.74 391.67 99.5202 398.83 96.2902C405.99 93.0602 409.92 101.29 409.92 101.29L407.4 90.6202L417 82.5002L419.56 82.2202Z" fill="white"/>
<path d="M428.59 78.8101L434.47 90.1701C434.616 90.4425 434.675 90.753 434.64 91.0601L434.18 95.3901C434.14 95.7721 434.239 96.1557 434.46 96.4701L438.56 102.23C438.773 102.527 438.876 102.889 438.853 103.253C438.829 103.618 438.68 103.963 438.43 104.23L435.43 107.53C435.286 107.689 435.176 107.876 435.105 108.078C435.035 108.281 435.006 108.496 435.02 108.71L436.22 126.12C436.267 126.792 436.098 127.462 435.739 128.032C435.379 128.602 434.847 129.043 434.22 129.29C432.774 129.781 431.257 130.034 429.73 130.04C424.5 130.22 414.6 126.7 412 125.74C411.797 125.667 411.612 125.553 411.456 125.405C411.299 125.257 411.175 125.078 411.09 124.88L406.76 114.64" stroke="#263238" stroke-linecap="round" stroke-linejoin="round"/>
<path d="M406.26 101.54C406.26 101.54 403.26 94.8198 400.69 95.5398C398.12 96.2598 395.05 98.5398 395.12 101.6C395.19 104.66 399.89 109.98 401.89 110.45C403.366 110.691 404.878 110.574 406.3 110.11" stroke="#263238" stroke-linecap="round" stroke-linejoin="round"/>
<path d="M430.18 96.6499C430.18 97.6499 429.77 98.4499 429.29 98.4399C428.81 98.4299 428.43 97.6199 428.45 96.6299C428.47 95.6399 428.86 94.8299 429.34 94.8399C429.82 94.8499 430.2 95.6599 430.18 96.6499Z" fill="#263238"/>
<path d="M426.58 108.54C426.587 109.601 426.957 110.629 427.628 111.451C428.299 112.273 429.232 112.841 430.27 113.06" stroke="#263238" stroke-linecap="round" stroke-linejoin="round"/>
<path d="M430.42 90.3601C430.42 90.3601 425.95 86.4701 423.34 93.6301" stroke="#263238" stroke-width="2" stroke-linecap="round" stroke-linejoin="round"/>
<path d="M397.06 107.57L397.84 107.74C397.84 107.74 391.75 118.81 385.62 124.67" stroke="#263238" stroke-linecap="round" stroke-linejoin="round"/>
<path d="M399.28 109C399.28 109 396.78 128.1 400.28 136.9" stroke="#263238" stroke-linecap="round" stroke-linejoin="round"/>
<path d="M394.85 90.2901C394.85 90.2901 390.73 82.2101 396.51 74.6001" stroke="#263238" stroke-linecap="round" stroke-linejoin="round"/>
<path d="M396.44 88.9C388.59 88.47 386.25 97.9 386.25 97.9" stroke="#263238" stroke-linecap="round" stroke-linejoin="round"/>
<path d="M432.48 67.6901C430.36 66.5101 426.22 73.6901 415.88 71.4301C409.29 70.0101 393.45 74.3601 394.37 88.7801C394.37 88.7801 382.28 95.7801 396.03 110.91L397.8 106.8C397.8 106.8 392.07 100.66 397.02 97.5501C401.4 94.8101 401.96 95.1401 406.13 101.77C406.13 101.77 407.53 104.67 410.25 103.85C412.97 103.03 412.85 101.9 411.75 99.1701C411.34 98.1701 410.66 96.4701 410.1 94.6101C412.58 93.9001 418.54 91.3401 418.46 83.1201V83.0001C423.73 81.5401 429.81 79.8201 431.63 76.9001C434.7 72.0001 434.6 68.8601 432.48 67.6901Z" fill="#263238"/>
<path d="M397.18 88.4C396.42 83.91 399.51 79.46 403.5 77.28C407.49 75.1 412.21 74.74 416.76 74.66C419.66 74.7492 422.562 74.5144 425.41 73.96C426.406 73.7315 427.375 73.3962 428.3 72.96" stroke="white" stroke-width="0.5" stroke-linecap="round" stroke-linejoin="round"/>
<path d="M399.42 90.8198C399.729 89.0877 400.557 87.4904 401.795 86.2401C403.032 84.9898 404.621 84.1457 406.35 83.8198C408.16 83.5198 410.04 83.8198 411.84 83.4398C413.64 83.0598 415.48 81.6798 415.4 79.8398" stroke="white" stroke-width="0.5" stroke-linecap="round" stroke-linejoin="round"/>
<path d="M353.93 170.2L401.81 136.11C402.362 135.717 402.99 135.442 403.653 135.305C404.317 135.167 405.002 135.169 405.665 135.31C406.328 135.451 406.954 135.728 407.504 136.124C408.054 136.52 408.516 137.026 408.86 137.61C408.86 137.61 466.99 226.42 464.74 227.82L330.85 317.89C328.56 319.33 275.17 231.65 275.17 231.65C274.507 230.59 274.273 229.317 274.517 228.09C274.76 226.864 275.462 225.776 276.48 225.05L301.84 206.68" stroke="#263238" stroke-linecap="round" stroke-linejoin="round"/>
<path d="M388.93 278.4C391.31 284.19 396.52 288.26 401.68 291.8C406.84 295.34 412.32 298.8 415.75 304.02C419.18 309.24 419.88 316.9 415.51 321.37C415.121 321.853 414.619 322.234 414.049 322.479C413.48 322.725 412.859 322.828 412.24 322.78C409.4 322.22 409.9 317.58 407.59 315.84C404.1 320.78 396.89 322.68 392.85 323.25L395 313.81C395 313.81 400.29 313.22 404.25 307.56C404.25 307.56 404.09 305.02 394.88 302.02C385.67 299.02 376.11 287.27 376.11 287.27L388.93 278.4Z" fill="#79D7FF"/>
<path opacity="0.6" d="M388.93 278.4C391.31 284.19 396.52 288.26 401.68 291.8C406.84 295.34 412.32 298.8 415.75 304.02C419.18 309.24 419.88 316.9 415.51 321.37C415.121 321.853 414.619 322.234 414.049 322.479C413.48 322.725 412.859 322.828 412.24 322.78C409.4 322.22 409.9 317.58 407.59 315.84C404.1 320.78 396.89 322.68 392.85 323.25L395 313.81C395 313.81 400.29 313.22 404.25 307.56C404.25 307.56 404.09 305.02 394.88 302.02C385.67 299.02 376.11 287.27 376.11 287.27L388.93 278.4Z" fill="white"/>
<path d="M404.09 341.45C404.09 341.45 389.34 333.77 394.54 314.05C394.54 314.05 384.42 313.14 375.8 322.51C367.18 331.88 358.5 344.94 358.5 344.94C358.5 344.94 345.74 348.8 345.87 353.7C346 358.6 349.68 360.82 352.2 362.82C354.72 364.82 355.82 369.34 357.11 374.82C358.4 380.3 364.88 392.58 373.89 393.11C382.9 393.64 383.53 390.32 383.53 390.32C383.53 390.32 381.62 386.95 379.14 382.8C376.66 378.65 373.28 368.8 373.2 360.95C373.12 353.1 376.31 349.63 381.82 348.34C387.33 347.05 397.37 345.07 404.09 341.45Z" fill="#79D7FF"/>
<path d="M376.64 287.61C375.09 286.05 385.74 298.83 396.95 302.76C407.95 306.63 407.95 312.12 407.95 312.12" stroke="#263238" stroke-linecap="round" stroke-linejoin="round"/>
<path d="M417.84 259.56C417.84 259.56 435.21 284.98 438.71 307.79C438.71 307.79 431.71 317.67 428.17 326.79C424.63 335.91 395 345.46 382.6 348.47C379.24 349.28 375.8 350.95 374.23 354.2C372.48 357.82 373.3 362.62 373.74 366.46C374.163 370.7 375.218 374.853 376.87 378.78C378.53 382.53 381.37 385.56 383.11 389.22C384.53 392.22 380.87 392.62 378.63 392.92C364.86 394.79 358 379.75 356.35 371C354.7 362.25 346.8 360.18 345.94 355.91C344.35 348.03 358.5 344.91 358.5 344.91C358.23 345.48 369.01 329.07 375.8 322.48C378.42 319.92 381.26 317.42 384.8 316.06C388.34 314.7 392.39 314.56 396.15 313.61C399.91 312.66 403.75 310.41 404.52 306.85" stroke="#263238" stroke-linecap="round" stroke-linejoin="round"/>
<path d="M394.73 314.17C394.73 314.17 387.65 332.1 404.52 341.56" stroke="#263238" stroke-linecap="round" stroke-linejoin="round"/>
<path d="M381.28 284.31C386.535 290.788 393.382 295.791 401.15 298.83" stroke="#263238" stroke-linecap="round" stroke-linejoin="round"/>
<path d="M396.91 317.16C393.618 317.367 390.372 318.04 387.27 319.16C384.153 320.293 381.392 322.232 379.27 324.78" stroke="#263238" stroke-linecap="round" stroke-linejoin="round"/>
<path opacity="0.2" d="M393.17 323.63C387.104 325.894 381.234 328.653 375.62 331.88C369.996 335.122 365.189 339.61 361.57 345C361.17 345.698 360.698 346.352 360.16 346.95C358.83 348.28 356.87 348.68 355.11 349.35C351.23 350.83 346.53 356.98 346.61 356.59C346.61 356.59 340.85 349.59 358.5 344.9C358.5 344.9 367.56 331.67 373.64 324.98C379.72 318.29 383.15 315.2 394.23 314.07L393.17 323.63Z" fill="black"/>
<path d="M394 141.7L395.22 140.61C393.591 138.28 392.14 135.829 390.88 133.28C389.56 130.28 388.13 124.41 383.02 123.58C377.91 122.75 370.02 126.06 370.02 126.06C370.02 126.06 358.73 121.8 348.95 124.06C348.95 124.06 335.41 127.35 323.95 141.17C312.49 154.99 303.47 165.34 281.5 172.38C259.53 179.42 232.79 181.8 224.63 186.81C224.63 186.81 239.85 191.98 240.79 204.49C241.73 217 233.45 226.61 237.34 234.17C241.23 241.73 248.44 243.33 251.62 247.63C254.8 251.93 258.74 262.23 260.57 266.26C262.4 270.29 274.2 282.59 289 284C289 284 291.91 270.6 295.62 265L275.2 231.63C275.2 231.63 272.78 227.9 276.83 224.63C280.88 221.36 301.83 206.7 301.83 206.7C301.83 206.7 298.4 200.35 297.73 195.22C297.24 192.03 295.698 189.095 293.35 186.88C293.35 186.88 295.72 179.57 301.28 175.28C306.84 170.99 317.36 160.91 321.96 154.36C326.56 147.81 336.84 128.6 355.74 126.27C359.478 127.559 362.928 129.563 365.9 132.17C371.08 136.6 381.09 144.25 394 141.7Z" fill="#79D7FF"/>
<path opacity="0.2" d="M289 284C289 284 276.4 284 265.67 272.28C254.94 260.56 257.67 254.67 252.85 249.04C248.03 243.41 239.41 239.9 237.34 234.15C235.27 228.4 240.01 214.27 240.7 209.34C241.39 204.41 238.2 190.2 224.63 186.79C224.63 186.79 240.51 180.95 254.33 178.89C268.15 176.83 287.57 171.58 296.5 166.36C305.43 161.14 320.59 145.55 323.5 142.19C326.41 138.83 337.18 127.36 345.5 125.43C352.2 123.88 355.81 126.27 355.81 126.27C355.81 126.27 339.81 129.67 331.29 140.35C324.44 148.89 323.05 155.52 313.86 164.23C304.67 172.94 296.57 177.07 293.35 186.07C293.35 186.07 296.7 190.95 297.2 194C297.7 197.05 301.9 206.7 301.9 206.7L276.54 225.07C276.54 225.07 272.54 227.32 275.36 232.3C278.18 237.28 295.73 265.3 295.73 265.3C295.73 265.3 288.68 279.08 289 284Z" fill="black"/>
<path opacity="0.38" d="M371 125.94C371 125.94 381.51 122.38 384.85 124.38C388.19 126.38 395.23 141.2 395.23 141.2L393.34 142.77C393.34 142.77 378.65 141.4 373.39 137.59C368.13 133.78 361.39 125.71 349.3 124.82C349.32 124.82 356.1 122 371 125.94Z" fill="white"/>
<path d="M347.81 124.72C334.58 128.55 330.5 135.11 323.44 142.17C318.26 147.35 313.53 152.98 308.16 157.96C285.77 178.7 252.34 175.68 223.89 186.76C228.057 187.493 231.893 189.503 234.869 192.51C237.844 195.518 239.812 199.376 240.5 203.55C242.08 212.75 234.15 226.21 237.76 234.82C240.12 240.45 246.9 242.63 251.13 247.04C256.13 252.21 257.13 259.93 260.54 266.22C266.22 276.58 277.17 282.09 288.97 283.98" stroke="#263238" stroke-linecap="round" stroke-linejoin="round"/>
<path d="M295.15 189.52C293.54 191.16 292.09 192.95 290.51 194.61C282.56 202.93 271.58 207.54 260.94 211.94" stroke="#263238" stroke-linecap="round" stroke-linejoin="round"/>
<path d="M297.92 197C291.98 204 283.69 207.35 275.64 211.79C267.59 216.23 259.45 221.94 256.31 230.58" stroke="#263238" stroke-linecap="round" stroke-linejoin="round"/>
<path d="M375.44 130.5C365.22 118.74 345.44 125.41 345.44 125.41C353 124.41 358.73 125.41 369.91 134.8C378.64 142.13 389.09 142.48 393.13 142.25" stroke="#263238" stroke-linecap="round" stroke-linejoin="round"/>
<path d="M369.8 126.14C373.088 125.192 376.427 124.428 379.8 123.85C380.707 123.662 381.635 123.598 382.56 123.66C383.537 123.825 384.472 124.185 385.307 124.72C386.142 125.254 386.861 125.951 387.42 126.77C388.527 128.411 389.465 130.16 390.22 131.99C391.652 134.992 393.349 137.859 395.29 140.56" stroke="#263238" stroke-linecap="round" stroke-linejoin="round"/>
<path d="M305.45 281.32C305.45 281.32 293.7 290.86 290.45 306.61C289.383 305.477 288.636 304.081 288.285 302.565C287.934 301.049 287.991 299.467 288.45 297.98C288.45 297.98 255.45 312.04 242.6 347.81L239.83 339.81C239.83 339.81 244.27 314.63 260.23 303.43C276.37 292.09 288.14 289.43 288.14 289.43C288.14 289.43 290.14 272 295.66 265.77L305.45 281.32Z" fill="#79D7FF"/>
<path opacity="0.6" d="M305.45 281.36C305.45 281.36 293.7 290.86 290.45 306.61C289.383 305.477 288.636 304.081 288.285 302.565C287.934 301.049 287.991 299.467 288.45 297.98C288.45 297.98 255.45 312.04 242.6 347.81L239.83 339.81C239.83 339.81 244.27 314.63 260.23 303.43C276.37 292.09 288.14 289.43 288.14 289.43C288.14 289.43 290.14 272.23 295.66 266L305.45 281.36Z" fill="white"/>
<path d="M320.62 304.09C318.62 304.97 316.89 305.81 314.76 306.67C314.76 306.67 309.64 323.61 289.05 329.9C285.59 341.22 280.05 346.81 274.91 352.24C267.01 360.65 256.62 362.04 248.12 369.99C239.37 378.18 231.72 386.92 231.53 399.57C231.37 409.65 258.48 421.89 245.78 429.35C233.08 436.81 216.32 426.6 215.78 416.85C215.24 407.1 213.62 403.47 208.78 398.19C203.42 392.3 207.48 387.19 212.19 382.24C221.89 371.99 230.19 362.77 236.26 349.89C241 336.66 244.03 317.12 258.61 304.18C268.15 295.71 288.18 289.41 288.18 289.41C288.18 289.41 289.09 276.41 295.67 265.3" stroke="#263238" stroke-linecap="round" stroke-linejoin="round"/>
<path d="M239.73 339C240.08 338 242.73 358.89 262.44 360.84" stroke="#263238" stroke-linecap="round" stroke-linejoin="round"/>
<path d="M273.92 298.73C265.899 302.393 259.279 308.553 255.05 316.29" stroke="#263238" stroke-linecap="round" stroke-linejoin="round"/>
<path d="M282.71 295.72C280.419 296.238 278.175 296.944 276 297.83" stroke="#263238" stroke-linecap="round" stroke-linejoin="round"/>
<path d="M221.69 422C223.585 424.808 226.28 426.983 229.424 428.244C232.569 429.504 236.02 429.792 239.33 429.07" stroke="#263238" stroke-linecap="round" stroke-linejoin="round"/>
<path opacity="0.2" d="M242.8 346.87C239.4 356.36 234.59 364.87 227.13 371.65C223.97 374.53 220.49 377.09 217.64 380.29C214.79 383.49 212.55 387.5 212.55 391.78C212.673 394.245 213.162 396.678 214 399C215.16 402.74 216.313 406.473 217.46 410.2C218.137 412.841 219.191 415.37 220.59 417.71C222.121 419.909 224.11 421.751 226.42 423.11C229.626 425.208 233.379 426.314 237.21 426.29C241.01 426.15 245.59 423.14 247.79 420.03C247.79 420.03 250.85 422.93 248.09 427.72C245.33 432.51 232.99 432.6 229.25 431.11C225.51 429.62 217.53 424.67 216 419.27C214.47 413.87 216.69 408.71 213 404C209.31 399.29 204.09 395.44 206.46 389.92C208.83 384.4 221.9 372.6 225.57 367.11C229.24 361.62 238.21 349.42 239.43 339.58L242.8 346.87Z" fill="black"/>
<path d="M388.36 212.29L462.38 222.9L464.22 227.57L388.56 214.38L388.36 212.29Z" fill="#79D7FF"/>
<path opacity="0.6" d="M388.36 212.29L462.38 222.9L464.22 227.57L388.56 214.38L388.36 212.29Z" fill="white"/>
<path d="M349.95 242.13L326.62 312.49L330.79 317.59L350.9 244.11L349.95 242.13Z" fill="#79D7FF"/>
<path opacity="0.6" d="M349.95 242.13L326.62 312.49L330.79 317.59L350.9 244.11L349.95 242.13Z" fill="white"/>
<path d="M406.39 135.72L382.33 252.15L275.17 231.65L274.69 229.85L379 246.8L406.39 135.72Z" fill="#79D7FF"/>
<path opacity="0.6" d="M406.39 135.72L382.33 252.15L275.17 231.65L274.69 229.85L379 246.8L406.39 135.72Z" fill="white"/>
<path d="M405.32 183.203C412.936 179.86 416.399 170.976 413.056 163.36C409.713 155.744 400.829 152.28 393.213 155.623C385.597 158.967 382.133 167.851 385.476 175.467C388.82 183.083 397.704 186.546 405.32 183.203Z" fill="#79D7FF"/>
<path d="M401.46 154.23L405.95 135.56" stroke="#263238" stroke-linecap="round" stroke-linejoin="round"/>
<path d="M330.72 317.4L351.81 242.1" stroke="#263238" stroke-linecap="round" stroke-linejoin="round"/>
<path d="M386.93 214.3L464.5 227.46" stroke="#263238" stroke-linecap="round" stroke-linejoin="round"/>
<path d="M338.29 200.08L375.62 173.23" stroke="#263238" stroke-linecap="round" stroke-linejoin="round"/>
<path d="M340.28 205.59L378.48 178.08" stroke="#263238" stroke-linecap="round" stroke-linejoin="round"/>
<path d="M344.59 214.58C348.87 214.92 353.79 211.89 356.23 208.41C358.67 204.93 360.61 200.91 364.13 198.47C366.503 197.037 369.083 195.981 371.78 195.34C374.481 194.69 377.017 193.488 379.23 191.81C381.32 190 382.65 187.09 381.81 184.48" stroke="#263238" stroke-linecap="round" stroke-linejoin="round"/>
<path d="M347.17 218.12C351.45 218.78 355.38 215.79 358.06 212.42C360.74 209.05 362.82 205.11 366.33 202.59C369.062 200.498 372.22 199.03 375.58 198.29C381.25 197.29 385.03 193.82 385.22 190.43" stroke="#263238" stroke-linecap="round" stroke-linejoin="round"/>
<path d="M399.2 184.24C407.496 184.24 414.22 177.516 414.22 169.22C414.22 160.925 407.496 154.2 399.2 154.2C390.905 154.2 384.18 160.925 384.18 169.22C384.18 177.516 390.905 184.24 399.2 184.24Z" stroke="#263238" stroke-linecap="round" stroke-linejoin="round"/>
<path d="M353.93 170.2L401.81 136.11C402.362 135.717 402.99 135.442 403.653 135.305C404.317 135.167 405.002 135.169 405.665 135.31C406.328 135.451 406.954 135.728 407.504 136.124C408.054 136.52 408.516 137.026 408.86 137.61C408.86 137.61 466.99 226.42 464.74 227.82L330.85 317.89C328.56 319.33 275.17 231.65 275.17 231.65C274.507 230.59 274.273 229.317 274.517 228.09C274.76 226.864 275.462 225.776 276.48 225.05L301.84 206.68" stroke="#263238" stroke-linecap="round" stroke-linejoin="round"/>
<path d="M379.86 242.94L394.18 183.6" stroke="#263238" stroke-linecap="round" stroke-linejoin="round"/>
<path d="M274.42 229.86L352.03 242.05" stroke="#263238" stroke-linecap="round" stroke-linejoin="round"/>
<path d="M323.88 225.16C323.88 225.16 335.95 226.63 341.88 211.08C341.88 211.08 348.88 221.43 354.61 225.3C354.61 225.3 357.05 224.66 362.42 225.95C366.644 226.786 370.944 227.178 375.25 227.12C375.25 227.12 373.92 231.79 370.96 231.88C369.035 231.886 367.136 231.433 365.42 230.56L364.76 232.19L384.61 247.05C384.86 247.37 385.045 247.736 385.153 248.127C385.261 248.518 385.29 248.927 385.239 249.33C385.188 249.733 385.057 250.121 384.855 250.473C384.652 250.825 384.382 251.133 384.06 251.38L370.06 241.68L369.4 243.32C369.4 243.32 377.78 254.5 378.02 256.26C378.26 258.02 377.86 258.14 376.51 258.26C375.16 258.38 373.17 256.32 373.17 256.32L365.68 245.55L364.38 246.74C364.38 246.74 369.74 257.74 369.05 260.07C368.36 262.4 365.3 259.16 365.3 259.16L361.14 249.39C361.14 249.39 362.77 257.1 360.33 258.14C357.89 259.18 357.71 256.08 357.06 248.72L350.58 239.87C350.58 239.87 331.64 231.27 323.88 225.16Z" fill="#79D7FF"/>
<path opacity="0.2" d="M330.68 223.78L351.74 238.26L357.01 248.72L351.45 240.74L323.78 226.13L330.68 223.78Z" fill="black"/>
<path d="M363.05 130.18C353.88 135.18 352.59 136.71 347.8 140.91C341.8 146.17 336.27 152.91 335.67 160.83C335.481 162.196 335.701 163.588 336.3 164.83C337.56 167.08 340.64 167.76 343.12 167.05C345.6 166.34 347.62 164.58 349.55 162.87C349.02 163.34 348.71 164.94 348.26 165.61C347.676 166.484 346.965 167.266 346.15 167.93C344.298 169.347 342.174 170.369 339.91 170.93C334.42 172.5 328.39 172.4 322.71 173.53C316.71 174.72 312.62 177.82 308.77 182.45C306.04 185.73 310.77 194.2 312.14 198.24C315.32 207.92 323.44 216.61 330.68 223.77L323.88 225.15C323.88 225.15 305.53 215.44 301.88 206.67C298.23 197.9 296.17 190.46 293.01 186.34C293.01 186.34 295.68 180.05 307.42 169.72C319.16 159.39 325.23 149.21 329.78 143.02C335.92 134.65 350.08 126.76 355.78 126.24C355.73 126.22 358.17 126.63 363.05 130.18Z" fill="#79D7FF"/>
<path opacity="0.6" d="M363.19 130.11C354.01 135.11 352.59 136.71 347.8 140.91C341.8 146.17 336.27 152.91 335.67 160.83C335.481 162.196 335.701 163.588 336.3 164.83C337.56 167.08 340.64 167.76 343.12 167.05C345.6 166.34 347.62 164.58 349.55 162.87C349.02 163.34 348.71 164.94 348.26 165.61C347.676 166.484 346.965 167.266 346.15 167.93C344.298 169.347 342.174 170.369 339.91 170.93C334.42 172.5 328.39 172.4 322.71 173.53C316.71 174.72 312.62 177.82 308.77 182.45C306.04 185.73 310.77 194.2 312.14 198.24C315.32 207.92 323.44 216.61 330.68 223.77L323.88 225.15C323.88 225.15 305.53 215.44 301.88 206.67C298.23 197.9 296.17 190.46 293.01 186.34C293.01 186.34 295.68 180.05 307.42 169.72C319.16 159.39 325.23 149.21 329.78 143.02C335.92 134.65 350.78 126.81 356.48 126.29C358.82 127.373 361.065 128.651 363.19 130.11Z" fill="white"/>
<path d="M333.13 192.33C341.42 186.68 354.62 175.09 356.93 160.87" stroke="#263238" stroke-linecap="round" stroke-linejoin="round"/>
<path d="M357.31 227.07C349.64 222.418 343.782 215.294 340.7 206.87C336.41 195.23 331.89 188.48 320.46 184.13" stroke="#263238" stroke-linecap="round" stroke-linejoin="round"/>
<path d="M305 205.08C308.518 210.74 313.604 215.256 319.64 218.08" stroke="#263238" stroke-linecap="round" stroke-linejoin="round"/>
<path d="M301.49 197.54C302.08 199.409 302.84 201.22 303.76 202.95" stroke="#263238" stroke-linecap="round" stroke-linejoin="round"/>
<path d="M323.88 225.16C323.88 225.16 337.16 225.51 342.12 210.47" stroke="#263238" stroke-linecap="round" stroke-linejoin="round"/>
<path d="M347.1 133.39C349.296 132.504 351.574 131.834 353.9 131.39" stroke="#263238" stroke-linecap="round" stroke-linejoin="round"/>
<path d="M329.31 149.54C332.735 143.053 338.111 137.806 344.68 134.54" stroke="#263238" stroke-linecap="round" stroke-linejoin="round"/>
<path d="M320.3 181.5C322.127 181.978 323.83 182.843 325.293 184.037C326.756 185.231 327.945 186.726 328.78 188.42" stroke="#263238" stroke-linecap="round" stroke-linejoin="round"/>
<path d="M355.35 225.67C357.99 224.46 361.35 225.44 362.93 225.95C365.09 226.62 373.61 227.82 375.22 227.12C376.83 226.42 373.81 230.79 371.95 231.65C370.09 232.51 365.39 230.56 365.39 230.56L364.73 232.19C364.73 232.19 383.91 245.6 385 247.5C386.09 249.4 385.35 251.24 384.06 251.38C382.77 251.52 370.06 241.68 370.06 241.68L369.4 243.32C369.4 243.32 379.4 256.13 378.4 257.47C377.4 258.81 375.3 258.27 373.68 256.57C372.06 254.87 365.68 245.57 365.68 245.57L364.38 246.76C364.38 246.76 369.75 258.76 369.05 260.09C368.35 261.42 366.67 260.94 365.69 259.69C364.71 258.44 360.75 248.59 360.75 248.59C360.75 248.59 361.8 256.87 361.18 257.78C361.012 257.995 360.796 258.167 360.55 258.283C360.303 258.399 360.032 258.455 359.76 258.447C359.488 258.44 359.221 258.368 358.981 258.238C358.741 258.108 358.536 257.924 358.38 257.7C357.75 256.7 357.06 248.7 357.06 248.7L350.58 239.85C337.01 234.49 312.71 218.16 312.71 218.16C299.89 207.85 298.71 199.46 297.19 193.96C296.503 191.324 295.208 188.886 293.41 186.84C296.88 173.45 312.88 170.72 325.19 149.47C337.5 128.22 356.72 126.31 356.72 126.31" stroke="#263238" stroke-linecap="round" stroke-linejoin="round"/>
<path d="M188.21 319.71L165.79 338.25" stroke="#263238" stroke-linecap="round" stroke-linejoin="round"/>
<path d="M246.71 271.33L201.78 308.48" stroke="#263238" stroke-linecap="round" stroke-linejoin="round"/>
<path d="M187.79 254.83L178.94 262.15" stroke="#263238" stroke-linecap="round" stroke-linejoin="round"/>
<path d="M229.74 220.14L194.73 249.09" stroke="#263238" stroke-linecap="round" stroke-linejoin="round"/>
<path d="M207.79 245.31L186.45 262.96" stroke="#263238" stroke-linecap="round" stroke-linejoin="round"/>
<path d="M319.94 333.13L292.16 356.1" stroke="#263238" stroke-linecap="round" stroke-linejoin="round"/>
<path d="M334.79 320.85L323.74 329.98" stroke="#263238" stroke-linecap="round" stroke-linejoin="round"/>
<path d="M330.56 330.92L319.51 340.06" stroke="#263238" stroke-linecap="round" stroke-linejoin="round"/>
<path d="M454.56 131.19L447.76 136.81" stroke="#263238" stroke-linecap="round" stroke-linejoin="round"/>
<path d="M482.14 108.38L457.8 128.51" stroke="#263238" stroke-linecap="round" stroke-linejoin="round"/>
<path d="M435.23 247.26H531.71C531.71 247.26 530.71 242.68 526.64 241.26C522.57 239.84 519.64 241.26 519.64 236.44C519.64 231.62 518.43 229.2 513.85 228.24C513.85 228.24 510.96 217.87 501.79 216.9C492.62 215.93 486.11 217.14 484.66 222.69C483.21 228.24 481.77 231.13 479.12 230.89C476.47 230.65 472.12 228 469.95 233.06C467.78 238.12 467.78 241.06 464.4 240.06C461.02 239.06 454.27 234.75 448.97 243.44C449 243.41 440.29 239.79 435.23 247.26Z" fill="white"/>
<path d="M268.75 142.86H172.27C172.27 142.86 173.27 138.27 177.34 136.86C181.41 135.45 184.34 136.86 184.34 132.03C184.34 127.2 185.55 124.8 190.13 123.83C190.13 123.83 193.02 113.46 202.19 112.49C211.36 111.52 217.87 112.73 219.32 118.28C220.77 123.83 222.21 126.72 224.86 126.48C227.51 126.24 231.86 123.59 234.03 128.65C236.2 133.71 236.2 136.65 239.58 135.65C242.96 134.65 249.7 130.31 255 139C255 139 263.69 135.38 268.75 142.86Z" fill="white"/>
</svg>
