<svg xmlns="http://www.w3.org/2000/svg" data-name="Layer 1" width="740.85681" height="511.67482" viewBox="0 0 740.85681 511.67482" xmlns:xlink="http://www.w3.org/1999/xlink">
<path d="M963.4284,387.83741h-.20019l-114.79981,49.02-157.06982,67.07a5.06611,5.06611,0,0,1-3.88037.02l-162.04981-67.23-117.62011-48.8-.17969-.08h-.2002a7.00778,7.00778,0,0,0-7,7v304a7.00779,7.00779,0,0,0,7,7h556a7.00778,7.00778,0,0,0,7-7v-304A7.00778,7.00778,0,0,0,963.4284,387.83741Z" transform="translate(-229.5716 -194.16259)" fill="#fff"/>
<path d="M965.42767,389.83741a.99681.99681,0,0,1-.5708-.1792L688.298,197.05469a5.01546,5.01546,0,0,0-5.72851.00977L408.00274,389.65626a1.00019,1.00019,0,0,1-1.14868-1.6377l274.567-192.5918a7.02216,7.02216,0,0,1,8.02-.01318l276.55884,192.603a1.00019,1.00019,0,0,1-.57227,1.8208Z" transform="translate(-229.5716 -194.16259)" fill="#3f3d56"/>
<polygon points="194.121 202.502 456.132 8.319 720.132 216.319 469.632 364.819 333.632 333.819 194.121 202.502" fill="#e6e6e6"/>
<path d="M574.68393,650.70367H445.24362a6.04737,6.04737,0,1,1,0-12.09473H574.68393a6.04737,6.04737,0,1,1,0,12.09473Z" transform="translate(-229.5716 -194.16259)" fill="#6c63ff"/>
<path d="M491.68393,624.70367H445.24362a6.04737,6.04737,0,1,1,0-12.09473h46.44031a6.04737,6.04737,0,1,1,0,12.09473Z" transform="translate(-229.5716 -194.16259)" fill="#6c63ff"/>
<path d="M689.38856,504.82207a7.56366,7.56366,0,0,1-2.86914-.562L524.9286,437.21123v-209.874a7.00818,7.00818,0,0,1,7-7h310a7.00817,7.00817,0,0,1,7,7v210.0205l-.30371.12989L692.34462,504.22734A7.6162,7.6162,0,0,1,689.38856,504.82207Z" transform="translate(-229.5716 -194.16259)" fill="#fff"/>
<path d="M689.38856,505.32158a8.07177,8.07177,0,0,1-3.05957-.59863L524.4286,437.54521v-210.208a7.50851,7.50851,0,0,1,7.5-7.5h310a7.50851,7.50851,0,0,1,7.5,7.5V437.68779l-156.88769,66.999A8.10962,8.10962,0,0,1,689.38856,505.32158Zm-162.96-69.1123,160.66309,66.66455a6.11822,6.11822,0,0,0,4.668-.02784L847.4286,436.36748V227.33721a5.50653,5.50653,0,0,0-5.5-5.5h-310a5.50654,5.50654,0,0,0-5.5,5.5Z" transform="translate(-229.5716 -194.16259)" fill="#3f3d56"/>
<path d="M963.4284,387.83741h-.20019l-114.79981,49.02-157.06982,67.07a5.06611,5.06611,0,0,1-3.88037.02l-162.04981-67.23-117.62011-48.8-.17969-.08h-.2002a7.00778,7.00778,0,0,0-7,7v304a7.00779,7.00779,0,0,0,7,7h556a7.00778,7.00778,0,0,0,7-7v-304A7.00778,7.00778,0,0,0,963.4284,387.83741Zm5,311a5.002,5.002,0,0,1-5,5h-556a5.002,5.002,0,0,1-5-5v-304a5.01106,5.01106,0,0,1,4.81006-5l118.18994,49.04,161.28028,66.92a7.12081,7.12081,0,0,0,5.43994-.03l156.27978-66.74,115.2002-49.19a5.0162,5.0162,0,0,1,4.7998,5Z" transform="translate(-229.5716 -194.16259)" fill="#3f3d56"/>
<path d="M664.23161,298.78882h-110a8,8,0,1,1,0-16h110a8,8,0,0,1,0,16Z" transform="translate(-229.5716 -194.16259)" fill="#6c63ff"/>
<path d="M607.23161,264.78882h-53a8,8,0,1,1,0-16h53a8,8,0,0,1,0,16Z" transform="translate(-229.5716 -194.16259)" fill="#6c63ff"/>
<path d="M769.20012,378.78882h-168a8,8,0,1,1,0-16h168a8,8,0,0,1,0,16Z" transform="translate(-229.5716 -194.16259)" fill="#ccc"/>
<path d="M769.20012,415.78882h-168a8,8,0,1,1,0-16h168a8,8,0,0,1,0,16Z" transform="translate(-229.5716 -194.16259)" fill="#ccc"/>
</svg>